<mxfile host="app.diagrams.net" agent="Mozilla/5.0 (Windows NT 10.0; Win64; x64) AppleWebKit/537.36 (KHTML, like Gecko) Chrome/134.0.0.0 Safari/537.36" version="26.1.1">
  <diagram id="FOwHPRwuPGKrQtf4pItT" name="Page-1">
    <mxGraphModel dx="1434" dy="739" grid="1" gridSize="10" guides="1" tooltips="1" connect="1" arrows="1" fold="1" page="1" pageScale="1" pageWidth="850" pageHeight="1100" math="0" shadow="0">
      <root>
        <mxCell id="0" />
        <mxCell id="1" parent="0" />
        <mxCell id="mC-cKz02m4BU4YmE5tdv-1" value="" style="rounded=0;whiteSpace=wrap;html=1;fillColor=#d5e8d4;strokeColor=#82b366;" vertex="1" parent="1">
          <mxGeometry x="160" y="340" width="200" height="100" as="geometry" />
        </mxCell>
        <mxCell id="mC-cKz02m4BU4YmE5tdv-2" value="" style="rounded=0;whiteSpace=wrap;html=1;fillColor=#d5e8d4;strokeColor=#82b366;" vertex="1" parent="1">
          <mxGeometry x="460" y="330" width="200" height="110" as="geometry" />
        </mxCell>
        <mxCell id="mC-cKz02m4BU4YmE5tdv-3" value="provider" style="rounded=1;whiteSpace=wrap;html=1;" vertex="1" parent="1">
          <mxGeometry x="220" y="390" width="80" height="35" as="geometry" />
        </mxCell>
        <mxCell id="mC-cKz02m4BU4YmE5tdv-4" value="Provider" style="rounded=1;whiteSpace=wrap;html=1;" vertex="1" parent="1">
          <mxGeometry x="520" y="385" width="90" height="40" as="geometry" />
        </mxCell>
        <mxCell id="mC-cKz02m4BU4YmE5tdv-5" value="expense-ec2" style="text;html=1;align=center;verticalAlign=middle;whiteSpace=wrap;rounded=0;fontSize=10;fontStyle=1" vertex="1" parent="1">
          <mxGeometry x="210" y="350" width="70" height="30" as="geometry" />
        </mxCell>
        <mxCell id="mC-cKz02m4BU4YmE5tdv-6" value="roboshop-ec2" style="text;html=1;align=center;verticalAlign=middle;whiteSpace=wrap;rounded=0;fontStyle=1;fontSize=11;" vertex="1" parent="1">
          <mxGeometry x="510" y="340" width="80" height="30" as="geometry" />
        </mxCell>
        <mxCell id="mC-cKz02m4BU4YmE5tdv-7" value="" style="whiteSpace=wrap;html=1;aspect=fixed;fillColor=#dae8fc;strokeColor=#6c8ebf;" vertex="1" parent="1">
          <mxGeometry x="770" y="60" width="230" height="230" as="geometry" />
        </mxCell>
        <mxCell id="mC-cKz02m4BU4YmE5tdv-8" value="" style="sketch=0;outlineConnect=0;fontColor=#232F3E;gradientColor=none;fillColor=#232F3D;strokeColor=none;dashed=0;verticalLabelPosition=bottom;verticalAlign=top;align=center;html=1;fontSize=12;fontStyle=0;aspect=fixed;pointerEvents=1;shape=mxgraph.aws4.source_code;" vertex="1" parent="1">
          <mxGeometry x="850" y="170" width="57" height="78" as="geometry" />
        </mxCell>
        <mxCell id="mC-cKz02m4BU4YmE5tdv-9" value="terraform-aws-ec2" style="text;html=1;align=center;verticalAlign=middle;whiteSpace=wrap;rounded=0;" vertex="1" parent="1">
          <mxGeometry x="820" y="79" width="110" height="61" as="geometry" />
        </mxCell>
        <mxCell id="mC-cKz02m4BU4YmE5tdv-10" value="main.tf&lt;div&gt;variables.tf&lt;/div&gt;&lt;div&gt;data.tf&lt;/div&gt;&lt;div&gt;outputs.tf&lt;/div&gt;&lt;div&gt;locals.tf&lt;/div&gt;" style="text;html=1;align=center;verticalAlign=middle;whiteSpace=wrap;rounded=0;" vertex="1" parent="1">
          <mxGeometry x="930" y="130" width="60" height="110" as="geometry" />
        </mxCell>
        <mxCell id="mC-cKz02m4BU4YmE5tdv-11" value="" style="endArrow=classic;html=1;rounded=0;exitX=0.385;exitY=0.005;exitDx=0;exitDy=0;exitPerimeter=0;" edge="1" parent="1" source="mC-cKz02m4BU4YmE5tdv-1">
          <mxGeometry width="50" height="50" relative="1" as="geometry">
            <mxPoint x="240" y="160" as="sourcePoint" />
            <mxPoint x="760" y="160" as="targetPoint" />
            <Array as="points">
              <mxPoint x="237" y="160" />
            </Array>
          </mxGeometry>
        </mxCell>
        <mxCell id="mC-cKz02m4BU4YmE5tdv-12" value="" style="endArrow=none;html=1;rounded=0;" edge="1" parent="1">
          <mxGeometry width="50" height="50" relative="1" as="geometry">
            <mxPoint x="570" y="160" as="sourcePoint" />
            <mxPoint x="570" y="320" as="targetPoint" />
          </mxGeometry>
        </mxCell>
        <mxCell id="mC-cKz02m4BU4YmE5tdv-13" value="Module Users" style="text;html=1;align=center;verticalAlign=middle;resizable=0;points=[];autosize=1;strokeColor=none;fillColor=none;" vertex="1" parent="1">
          <mxGeometry x="110" y="288" width="100" height="30" as="geometry" />
        </mxCell>
        <mxCell id="mC-cKz02m4BU4YmE5tdv-14" value="Module Developers" style="text;html=1;align=center;verticalAlign=middle;resizable=0;points=[];autosize=1;strokeColor=none;fillColor=none;fontStyle=1" vertex="1" parent="1">
          <mxGeometry x="775" y="28" width="130" height="30" as="geometry" />
        </mxCell>
        <mxCell id="mC-cKz02m4BU4YmE5tdv-15" value="Pass Inputs" style="text;html=1;align=center;verticalAlign=middle;resizable=0;points=[];autosize=1;strokeColor=none;fillColor=none;fontStyle=1" vertex="1" parent="1">
          <mxGeometry x="395" y="168" width="90" height="30" as="geometry" />
        </mxCell>
      </root>
    </mxGraphModel>
  </diagram>
</mxfile>
